<svg width="45" height="30" viewBox="0 0 45 30" fill="none" xmlns="http://www.w3.org/2000/svg">
<g clip-path="url(#clip0_22_7)">
<path fill-rule="evenodd" clip-rule="evenodd" d="M6.74495 12.5528H13.1401L12.1897 17.0896H5.91604C5.90736 17.305 5.9029 17.5205 5.9029 17.7359C5.9029 20.0607 6.45545 21.8598 7.56055 23.1267C8.66565 24.3935 10.0471 25.027 11.6913 25.027C13.2277 25.027 14.6293 24.5283 15.9029 23.5243C17.1525 22.5509 18.0876 21.1151 18.7144 19.2235C18.6717 18.6696 18.65 18.0953 18.65 17.5001C18.65 14.4426 19.2245 11.6289 20.3731 9.05329C20.0276 7.8179 19.4899 6.89382 18.76 6.27363C17.8638 5.51219 16.6711 5.13479 15.1751 5.13479C13.5376 5.13479 12.0079 5.63346 10.5861 6.63753C9.16422 7.6416 8.03213 9.21163 7.18316 11.3478C7.02175 11.7495 6.8756 12.1512 6.74487 12.5529L6.74495 12.5528ZM21.0373 26.0881C20.5509 26.5766 20.0321 27.0226 19.4811 27.4259C17.1496 29.1443 14.407 30 11.2668 30C7.73579 30 4.97304 28.9353 2.98514 26.7992C0.997237 24.6631 0 21.5634 0 17.5001C0 14.2049 0.667161 11.1928 2.0014 8.45693C3.33563 5.72108 5.18202 3.6254 7.55398 2.17655C9.91918 0.727796 12.4934 0 15.2764 0C18.4098 0 20.9367 0.842319 22.8707 2.52021C23.315 2.90724 23.7169 3.32599 24.0767 3.77655C24.7318 3.17633 25.4406 2.64288 26.2042 2.17655C28.5694 0.727796 31.1436 0 33.9266 0C37.06 0 39.5869 0.842319 41.5209 2.52021C43.4549 4.20485 44.5869 6.48918 44.9306 9.39353L39.2298 9.94608C38.9131 8.2547 38.3066 7.03498 37.4104 6.27354C36.5142 5.5121 35.3214 5.13471 33.8254 5.13471C32.1879 5.13471 30.6583 5.63337 29.2365 6.63744C27.8146 7.64151 26.6825 9.21154 25.8335 11.3477C24.9777 13.4771 24.5532 15.6064 24.5532 17.7359C24.5532 20.0607 25.1057 21.8598 26.2108 23.1267C27.3159 24.3935 28.6974 25.027 30.3416 25.027C31.8779 25.027 33.2796 24.5283 34.5532 23.5243C35.8335 22.527 36.7836 21.0445 37.4103 19.0836L43.3941 19.9933C42.2283 23.2345 40.4696 25.7143 38.1313 27.4259C35.7998 29.1443 33.0572 30 29.917 30C26.386 30 23.6232 28.9353 21.6353 26.7992C21.4249 26.5731 21.2256 26.3359 21.0373 26.0881Z" fill="black"/>
</g>
<defs>
<clipPath id="clip0_22_7">
<rect width="45" height="30" fill="white"/>
</clipPath>
</defs>
</svg>
