<svg width="142" height="30" viewBox="0 0 142 30" fill="none" xmlns="http://www.w3.org/2000/svg">
<path d="M133.002 16.4892H122.133L119.511 29.0296H113.754L119.622 0.97052H125.373L123.111 11.7866H133.987L136.249 0.97052H142L136.138 29.0296H130.381L133.002 16.4892Z" fill="black"/>
<path d="M104.178 29.0296H98.4208L103.305 5.67315H95.0824L96.0213 0.97052H118.086L117.147 5.67315H109.062L104.178 29.0296Z" fill="black"/>
<path d="M65.5349 18.0175C65.5349 16.3586 65.7827 14.6081 66.2782 12.7663C66.9303 10.2974 67.9213 8.16161 69.2515 6.34586C70.5817 4.53013 72.2639 3.09976 74.2852 2.04167C76.313 0.990106 78.6147 0.46106 81.2032 0.46106C84.6721 0.46106 87.4693 1.53873 89.6014 3.70063C91.7336 5.86253 92.8029 8.72329 92.8029 12.2895C92.8029 15.2547 92.1118 18.122 90.7229 20.8914C89.3341 23.6672 87.4432 25.803 85.0633 27.2987C82.6833 28.7944 79.9905 29.5389 76.9781 29.5389C74.37 29.5389 72.1791 28.9446 70.4056 27.7559C68.6386 26.5672 67.3802 25.0976 66.6434 23.3406C65.9066 21.5837 65.5349 19.8071 65.5349 18.0175H65.5349ZM71.2467 17.9065C71.2467 19.8398 71.8335 21.4596 73.0007 22.7593C74.1743 24.0656 75.7131 24.7188 77.6236 24.7188C79.1754 24.7188 80.6686 24.2028 82.0965 23.1773C83.531 22.1454 84.7111 20.5843 85.6501 18.4943C86.5825 16.3977 87.0519 14.3665 87.0519 12.3809C87.0519 10.1667 86.4586 8.42939 85.2784 7.16881C84.0917 5.90824 82.5855 5.28124 80.7533 5.28124C77.943 5.28124 75.6544 6.60058 73.8874 9.23276C72.1269 11.8715 71.2467 14.7583 71.2467 17.9065H71.2467Z" fill="black"/>
<path d="M42.1687 29.0296L48.037 0.97052H53.7879L48.9042 24.3269H63.1771L62.1991 29.0296H42.1687Z" fill="black"/>
<path fill-rule="evenodd" clip-rule="evenodd" d="M6.52655 12.6281H12.7146L11.795 17.0254H5.72449C5.71608 17.2342 5.7118 17.443 5.7118 17.6518C5.7118 19.9051 6.24649 21.649 7.31578 22.8769C8.38511 24.1048 9.72178 24.7188 11.3128 24.7188C12.7994 24.7188 14.1556 24.2355 15.3879 23.2623C16.5972 22.3188 17.5019 20.9272 18.1084 19.0937C18.067 18.5569 18.0461 18.0001 18.0461 17.4232C18.0461 14.4597 18.602 11.7325 19.7135 9.23609C19.3792 8.0387 18.8589 7.14294 18.1526 6.54181C17.2854 5.80376 16.1313 5.43801 14.6837 5.43801C13.0993 5.43801 11.6192 5.92134 10.2434 6.89454C8.86762 7.86771 7.77221 9.38953 6.95065 11.46C6.79444 11.8494 6.6531 12.2387 6.52652 12.6281H6.52655ZM20.356 25.7473C19.8853 26.2208 19.3834 26.6531 18.8502 27.044C16.5942 28.7095 13.9405 29.539 10.902 29.539C7.48534 29.539 4.81201 28.507 2.8885 26.4365C0.964997 24.3661 0 21.3616 0 17.4232C0 14.2293 0.645504 11.3098 1.93654 8.658C3.22757 6.00624 5.01412 3.97498 7.30927 2.57069C9.5979 1.16645 12.0887 0.46106 14.7816 0.46106C17.8135 0.46106 20.2586 1.27746 22.13 2.90381C22.5599 3.27892 22.9487 3.68479 23.2969 4.12151C23.9307 3.53978 24.6167 3.02269 25.3554 2.57069C27.6441 1.16645 30.1348 0.46106 32.8277 0.46106C35.8597 0.46106 38.3048 1.27746 40.1761 2.90381C42.0475 4.53666 43.1429 6.7508 43.4754 9.56585L37.9593 10.1014C37.6528 8.46204 37.066 7.27987 36.1988 6.54181C35.3316 5.80376 34.1775 5.43801 32.7299 5.43801C31.1455 5.43801 29.6654 5.92134 28.2896 6.89454C26.9138 7.86771 25.8184 9.38953 24.9968 11.46C24.1688 13.5239 23.758 15.5879 23.758 17.6518C23.758 19.9051 24.2927 21.649 25.362 22.8769C26.4313 24.1048 27.768 24.7188 29.3589 24.7188C30.8456 24.7188 32.2018 24.2355 33.4341 23.2623C34.673 22.2956 35.5924 20.8587 36.1988 18.9581L41.9888 19.8398C40.8608 22.9814 39.159 25.385 36.8964 27.044C34.6404 28.7095 31.9866 29.539 28.9482 29.539C25.5315 29.539 22.8582 28.507 20.9347 26.4365C20.731 26.2173 20.5382 25.9875 20.356 25.7473L20.356 25.7473Z" fill="black"/>
</svg>
