<?xml version="1.0" encoding="UTF-8"?>
<!DOCTYPE svg PUBLIC "-//W3C//DTD SVG 1.1//EN" "http://www.w3.org/Graphics/SVG/1.1/DTD/svg11.dtd">
<!-- Creator: CorelDRAW -->
<svg xmlns="http://www.w3.org/2000/svg" xml:space="preserve" width="186.048mm" height="124.224mm" version="1.1" style="shape-rendering:geometricPrecision; text-rendering:geometricPrecision; image-rendering:optimizeQuality; fill-rule:evenodd; clip-rule:evenodd"
viewBox="0 0 5127.71 3423.76"
 xmlns:xlink="http://www.w3.org/1999/xlink"
 xmlns:xodm="http://www.corel.com/coreldraw/odm/2003">
 <defs>
  <style type="text/css">
   <![CDATA[
    .fil0 {fill:#373435}
   ]]>
  </style>
 </defs>
 <g id="Camada_x0020_1">
  <metadata id="CorelCorpID_0Corel-Layer"/>
  <path class="fil0" d="M769.77 1432.6l729.85 0 -108.47 517.77 -715.98 0c-0.99,24.58 -1.5,49.17 -1.5,73.75 0,265.32 63.06,470.65 189.18,615.23 126.12,144.58 283.78,216.87 471.42,216.87 175.34,0 335.3,-56.91 480.65,-171.49 142.62,-111.09 249.33,-274.95 320.87,-490.83 -4.88,-63.21 -7.35,-128.76 -7.35,-196.69 0,-348.93 65.56,-670.05 196.65,-963.99 -39.43,-140.99 -100.8,-246.45 -184.1,-317.23 -102.28,-86.9 -238.4,-129.97 -409.13,-129.97 -186.88,0 -361.45,56.91 -523.72,171.5 -162.27,114.59 -291.47,293.77 -388.36,537.56 -18.42,45.85 -35.1,91.69 -50.02,137.53zm1631.12 1544.72c-55.51,55.75 -114.72,106.65 -177.6,152.68 -266.09,196.11 -579.09,293.77 -937.46,293.77 -402.98,0 -718.28,-121.51 -945.15,-365.29 -226.87,-243.78 -340.68,-597.54 -340.68,-1061.27 0,-376.06 76.14,-719.82 228.41,-1032.05 152.27,-312.23 362.99,-551.4 633.69,-716.75 269.93,-165.34 563.71,-248.4 881.32,-248.4 357.6,0 645.99,96.13 866.71,287.62 50.7,44.17 96.57,91.96 137.63,143.38 74.76,-68.5 155.66,-129.38 242.8,-182.6 269.93,-165.34 563.71,-248.4 881.32,-248.4 357.6,0 645.99,96.13 866.71,287.62 220.72,192.26 349.91,452.96 389.13,784.42l-650.61 63.06c-36.14,-193.03 -105.36,-332.23 -207.64,-419.13 -102.28,-86.9 -238.4,-129.97 -409.13,-129.97 -186.88,0 -361.45,56.91 -523.72,171.5 -162.27,114.59 -291.47,293.77 -388.36,537.56 -97.67,243.02 -146.12,486.03 -146.12,729.05 0,265.32 63.06,470.65 189.18,615.23 126.12,144.58 283.78,216.87 471.42,216.87 175.34,0 335.3,-56.91 480.65,-171.49 146.12,-113.82 254.55,-283.01 326.07,-506.8l682.91 103.82c-133.05,369.91 -333.76,652.91 -600.62,848.25 -266.09,196.11 -579.09,293.77 -937.46,293.77 -402.98,0 -718.28,-121.51 -945.15,-365.29 -24.02,-25.81 -46.76,-52.88 -68.25,-81.16z"/>
 </g>
</svg>
