<?xml version="1.0" encoding="UTF-8"?>
<!DOCTYPE svg PUBLIC "-//W3C//DTD SVG 1.1//EN" "http://www.w3.org/Graphics/SVG/1.1/DTD/svg11.dtd">
<!-- Creator: CorelDRAW -->
<svg xmlns="http://www.w3.org/2000/svg" xml:space="preserve" width="607.673mm" height="195.031mm" version="1.1" style="shape-rendering:geometricPrecision; text-rendering:geometricPrecision; image-rendering:optimizeQuality; fill-rule:evenodd; clip-rule:evenodd"
viewBox="0 0 54703.25 17556.84"
 xmlns:xlink="http://www.w3.org/1999/xlink"
 xmlns:xodm="http://www.corel.com/coreldraw/odm/2003">
 <defs>
  <style type="text/css">
   <![CDATA[
    .fil1 {fill:#373435}
    .fil0 {fill:#373435;fill-rule:nonzero}
   ]]>
  </style>
 </defs>
 <g id="Camada_x0020_1">
  <metadata id="CorelCorpID_0Corel-Layer"/>
  <g id="_2148274016880">
   <polygon class="fil0" points="51236.9,9351.12 47049.64,9351.12 46039.88,14173.87 43821.92,14173.87 46082.57,3382.96 48298.03,3382.96 47426.41,7542.58 51616.18,7542.58 52487.79,3382.96 54703.25,3382.96 52445.09,14173.87 50227.13,14173.87 "/>
   <polygon class="fil0" points="40133.02,14173.87 37915.05,14173.87 39796.43,5191.49 36628.98,5191.49 36990.69,3382.96 45490.79,3382.96 45129.08,5191.49 42014.39,5191.49 "/>
   <path class="fil0" d="M25246.3 9938.89c0,-638.01 95.45,-1311.19 286.35,-2019.53 251.19,-949.49 632.98,-1770.85 1145.41,-2469.15 512.42,-698.29 1160.47,-1248.38 1939.15,-1655.3 781.18,-404.41 1667.86,-607.87 2665.07,-607.87 1336.31,0 2413.89,414.45 3235.27,1245.87 821.37,831.42 1233.31,1931.61 1233.31,3303.09 0,1140.37 -266.25,2243.08 -801.28,3308.1 -535.03,1067.54 -1263.46,1888.91 -2180.29,2464.12 -916.83,575.22 -1954.22,861.56 -3114.69,861.56 -1004.74,0 -1848.72,-228.57 -2531.94,-685.73 -680.71,-457.15 -1165.5,-1022.32 -1449.34,-1698.01 -283.84,-675.69 -427.01,-1358.91 -427.01,-2047.15zm2200.38 -42.71c0,743.51 226.06,1366.44 675.69,1866.3 452.13,502.37 1044.93,753.56 1780.9,753.56 597.82,0 1173.03,-198.43 1723.12,-592.8 552.61,-396.87 1007.25,-997.21 1368.96,-1800.99 359.19,-806.31 540.04,-1587.49 540.04,-2351.09 0,-851.52 -228.58,-1519.67 -683.22,-2004.46 -457.16,-484.79 -1037.39,-725.92 -1743.23,-725.92 -1082.61,0 -1964.26,507.39 -2644.97,1519.67 -678.2,1014.79 -1017.3,2125.02 -1017.3,3335.73z"/>
   <polygon class="fil0" points="16244.84,14173.87 18505.5,3382.96 20720.95,3382.96 18839.58,12365.34 24338.01,12365.34 23961.24,14173.87 "/>
   <path class="fil1" d="M2514.25 7866.21l2383.86 0 -354.29 1691.14 -2338.55 0c-3.24,80.3 -4.89,160.59 -4.89,240.88 0,866.59 205.98,1537.25 617.91,2009.48 411.94,472.23 926.87,708.34 1539.77,708.34 572.7,0 1095.17,-185.88 1569.9,-560.14 465.83,-362.86 814.37,-898.04 1048.02,-1603.15 -15.95,-206.46 -23.99,-420.57 -23.99,-642.44 0,-1139.69 214.13,-2188.54 642.32,-3148.59 -128.79,-460.49 -329.23,-804.98 -601.32,-1036.16 -334.08,-283.84 -778.67,-424.5 -1336.31,-424.5 -610.38,0 -1180.57,185.88 -1710.57,560.15 -530,374.26 -951.99,959.52 -1268.48,1755.78 -60.18,149.74 -114.63,299.48 -163.39,449.21zm5327.58 5045.38c-181.32,182.1 -374.69,348.34 -580.07,498.68 -869.1,640.53 -1891.42,959.52 -3061.94,959.52 -1316.21,0 -2346.07,-396.87 -3087.07,-1193.13 -741,-796.25 -1112.75,-1951.71 -1112.75,-3466.35 0,-1228.3 248.67,-2351.09 746.02,-3370.9 497.35,-1019.81 1185.59,-1800.99 2069.76,-2341.05 881.66,-540.04 1841.19,-811.32 2878.59,-811.32 1168.01,0 2109.95,313.97 2830.85,939.43 165.61,144.26 315.41,300.35 449.53,468.3 244.17,-223.72 508.43,-422.58 793.03,-596.41 881.66,-540.04 1841.19,-811.32 2878.59,-811.32 1168.01,0 2109.95,313.97 2830.85,939.43 720.9,627.96 1142.9,1479.47 1271,2562.08l-2125.02 205.98c-118.05,-630.48 -344.12,-1085.12 -678.2,-1368.96 -334.08,-283.84 -778.67,-424.5 -1336.31,-424.5 -610.38,0 -1180.57,185.88 -1710.57,560.15 -530,374.26 -951.99,959.52 -1268.48,1755.78 -319.01,793.74 -477.25,1587.49 -477.25,2381.23 0,866.59 205.98,1537.25 617.91,2009.48 411.94,472.23 926.87,708.34 1539.77,708.34 572.7,0 1095.17,-185.88 1569.9,-560.14 477.25,-371.76 831.42,-924.36 1065.03,-1655.31l2230.53 339.1c-434.56,1208.2 -1090.14,2132.56 -1961.76,2770.57 -869.1,640.53 -1891.42,959.52 -3061.94,959.52 -1316.21,0 -2346.07,-396.87 -3087.07,-1193.13 -78.46,-84.31 -152.74,-172.7 -222.92,-265.08z"/>
  </g>
  <g id="_2148274026144">
   <rect class="fil1" y="-0.01" width="54703.25" height="1808.54"/>
   <rect class="fil1" y="15748.3" width="54703.25" height="1808.54"/>
  </g>
 </g>
</svg>
